REM DIRINDEX 1\2,1\3,1\4,1\5
REM DIRNAME "folder01","folder02","folder03","folder04","folder05"
TITLE ""
FILE "P1Q_j_1777-1790.mp3" MP3
  TRACK 01 AUDIO
    TITLE "3:cjc173_0532"
    INDEX 01 00:00:00
  TRACK 02 AUDIO
    TITLE "0:"
    INDEX 01 00:01:35
  TRACK 03 AUDIO
    TITLE "4:cjc173_0533"
    INDEX 01 00:01:57
  TRACK 04 AUDIO
    TITLE "0:"
    INDEX 01 00:04:02
  TRACK 05 AUDIO
    TITLE "5:cjc173_0534"
    INDEX 01 00:04:22
  TRACK 06 AUDIO
    TITLE "0:"
    INDEX 01 00:07:48
  TRACK 07 AUDIO
    TITLE "3:cjc173_0535"
    INDEX 01 00:08:20
  TRACK 08 AUDIO
    TITLE "0:"
    INDEX 01 00:09:72
  TRACK 09 AUDIO
    TITLE "4:cjc173_0536"
    INDEX 01 00:10:19
  TRACK 10 AUDIO
    TITLE "0:"
    INDEX 01 00:12:08
  TRACK 11 AUDIO
    TITLE "5:cjc173_0537"
    INDEX 01 00:12:27
  TRACK 12 AUDIO
    TITLE "0:"
    INDEX 01 00:15:10
  TRACK 13 AUDIO
    TITLE "3:cjc173_0538"
    INDEX 01 00:15:55
  TRACK 14 AUDIO
    TITLE "0:"
    INDEX 01 00:17:01
  TRACK 15 AUDIO
    TITLE "4:cjc173_0539"
    INDEX 01 00:17:26
  TRACK 16 AUDIO
    TITLE "0:"
    INDEX 01 00:20:60
  TRACK 17 AUDIO
    TITLE "5:cjc173_0540"
    INDEX 01 00:21:05
  TRACK 18 AUDIO
    TITLE "0:"
    INDEX 01 00:24:34
  TRACK 19 AUDIO
    TITLE "3:cjc173_0541"
    INDEX 01 00:25:06
  TRACK 20 AUDIO
    TITLE "0:"
    INDEX 01 00:26:45
  TRACK 21 AUDIO
    TITLE "4:cjc173_0542"
    INDEX 01 00:26:63
  TRACK 22 AUDIO
    TITLE "0:"
    INDEX 01 00:30:17
  TRACK 23 AUDIO
    TITLE "5:cjc173_0543"
    INDEX 01 00:30:37
  TRACK 24 AUDIO
    TITLE "0:"
    INDEX 01 00:34:27
  TRACK 25 AUDIO
    TITLE "3:cjc173_0544"
    INDEX 01 00:34:72
  TRACK 26 AUDIO
    TITLE "0:"
    INDEX 01 00:36:08
  TRACK 27 AUDIO
    TITLE "4:cjc173_0545"
    INDEX 01 00:36:30
  TRACK 28 AUDIO
    TITLE "0:"
    INDEX 01 00:41:09
  TRACK 29 AUDIO
    TITLE "5:cjc173_0546"
    INDEX 01 00:41:29
  TRACK 30 AUDIO
    TITLE "0:"
    INDEX 01 00:47:69
  TRACK 31 AUDIO
    TITLE "3:cjc173_0547"
    INDEX 01 00:48:43
  TRACK 32 AUDIO
    TITLE "0:"
    INDEX 01 00:49:75
  TRACK 33 AUDIO
    TITLE "4:cjc173_0548"
    INDEX 01 00:50:20
  TRACK 34 AUDIO
    TITLE "0:"
    INDEX 01 00:53:65
  TRACK 35 AUDIO
    TITLE "5:cjc173_0549"
    INDEX 01 00:54:10
  TRACK 36 AUDIO
    TITLE "0:"
    INDEX 01 00:58:70
  TRACK 37 AUDIO
    TITLE "3:cjc173_0550"
    INDEX 01 00:59:42
  TRACK 38 AUDIO
    TITLE "0:"
    INDEX 01 01:02:07
  TRACK 39 AUDIO
    TITLE "4:cjc173_0551"
    INDEX 01 01:02:27
  TRACK 40 AUDIO
    TITLE "0:"
    INDEX 01 01:04:40
  TRACK 41 AUDIO
    TITLE "5:cjc173_0552"
    INDEX 01 01:04:59
  TRACK 42 AUDIO
    TITLE "0:"
    INDEX 01 01:08:57
  TRACK 43 AUDIO
    TITLE "3:cjc173_0553"
    INDEX 01 01:09:27
  TRACK 44 AUDIO
    TITLE "0:"
    INDEX 01 01:11:57
  TRACK 45 AUDIO
    TITLE "4:cjc173_0554"
    INDEX 01 01:12:04
  TRACK 46 AUDIO
    TITLE "0:"
    INDEX 01 01:14:09
  TRACK 47 AUDIO
    TITLE "5:cjc173_0555"
    INDEX 01 01:14:28
  TRACK 48 AUDIO
    TITLE "0:"
    INDEX 01 01:17:31
  TRACK 49 AUDIO
    TITLE "3:cjc173_0556"
    INDEX 01 01:18:01
  TRACK 50 AUDIO
    TITLE "0:"
    INDEX 01 01:19:22
  TRACK 51 AUDIO
    TITLE "4:cjc173_0557"
    INDEX 01 01:19:43
  TRACK 52 AUDIO
    TITLE "0:"
    INDEX 01 01:20:64
  TRACK 53 AUDIO
    TITLE "5:cjc173_0558"
    INDEX 01 01:21:13
  TRACK 54 AUDIO
    TITLE "0:"
    INDEX 01 01:25:40
  TRACK 55 AUDIO
    TITLE "3:cjc173_0559"
    INDEX 01 01:26:10
  TRACK 56 AUDIO
    TITLE "0:"
    INDEX 01 01:27:41
  TRACK 57 AUDIO
    TITLE "4:cjc173_0560"
    INDEX 01 01:27:62
  TRACK 58 AUDIO
    TITLE "0:"
    INDEX 01 01:30:14
  TRACK 59 AUDIO
    TITLE "5:cjc173_0561"
    INDEX 01 01:30:33
  TRACK 60 AUDIO
    TITLE "0:"
    INDEX 01 01:34:07
  TRACK 61 AUDIO
    TITLE "3:cjc173_0562"
    INDEX 01 01:34:54
  TRACK 62 AUDIO
    TITLE "0:"
    INDEX 01 01:36:24
  TRACK 63 AUDIO
    TITLE "4:cjc173_0563"
    INDEX 01 01:36:46
  TRACK 64 AUDIO
    TITLE "0:"
    INDEX 01 01:39:36
  TRACK 65 AUDIO
    TITLE "5:cjc173_0564"
    INDEX 01 01:39:54
  TRACK 66 AUDIO
    TITLE "0:"
    INDEX 01 01:43:75
  TRACK 67 AUDIO
    TITLE "3:cjc173_0565"
    INDEX 01 01:44:45
  TRACK 68 AUDIO
    TITLE "0:"
    INDEX 01 01:45:74
  TRACK 69 AUDIO
    TITLE "4:cjc173_0566"
    INDEX 01 01:46:20
  TRACK 70 AUDIO
    TITLE "0:"
    INDEX 01 01:51:14
  TRACK 71 AUDIO
    TITLE "5:cjc173_0567"
    INDEX 01 01:51:33
  TRACK 72 AUDIO
    TITLE "0:"
    INDEX 01 01:56:23
  TRACK 73 AUDIO
    TITLE "3:cjc173_0568"
    INDEX 01 01:56:70
  TRACK 74 AUDIO
    TITLE "0:"
    INDEX 01 01:58:26
  TRACK 75 AUDIO
    TITLE "4:cjc173_0569"
    INDEX 01 01:58:45
  TRACK 76 AUDIO
    TITLE "0:"
    INDEX 01 02:01:32
  TRACK 77 AUDIO
    TITLE "5:cjc173_0570"
    INDEX 01 02:01:51
  TRACK 78 AUDIO
    TITLE "0:"
    INDEX 01 02:05:35
  TRACK 79 AUDIO
    TITLE "3:cjc173_0571"
    INDEX 01 02:06:06
  TRACK 80 AUDIO
    TITLE "0:"
    INDEX 01 02:07:21
  TRACK 81 AUDIO
    TITLE "4:cjc173_0572"
    INDEX 01 02:07:42
  TRACK 82 AUDIO
    TITLE "0:"
    INDEX 01 02:12:24
  TRACK 83 AUDIO
    TITLE "5:cjc173_0573"
    INDEX 01 02:12:43
  TRACK 84 AUDIO
    TITLE "0:"
    INDEX 01 02:16:06
